<svg xmlns="http://www.w3.org/2000/svg" viewBox="0 0 640 400">
  <defs>
    <linearGradient id="haze" x1="0" y1="0" x2="0" y2="1">
      <stop offset="0" stop-color="#9db8d9"/><stop offset="1" stop-color="#e6eef7"/>
    </linearGradient>
    <linearGradient id="twr" x1="0" y1="0" x2="1" y2="0">
      <stop offset="0" stop-color="#c9d4e4"/><stop offset="0.5" stop-color="#eef3fa"/><stop offset="1" stop-color="#aebbd0"/>
    </linearGradient>
    <linearGradient id="riv" x1="0" y1="0" x2="0" y2="1">
      <stop offset="0" stop-color="#6c8bb4"/><stop offset="1" stop-color="#49628c"/>
    </linearGradient>
  </defs>
  <rect width="640" height="400" fill="url(#haze)"/>
  <g fill="#8fa3c2" opacity="0.7">
    <rect x="20" y="240" width="60" height="68"/>
    <rect x="90" y="220" width="44" height="88"/>
    <rect x="540" y="228" width="56" height="80"/>
    <rect x="600" y="246" width="40" height="62"/>
    <ellipse cx="120" cy="120" rx="70" ry="22" fill="#c3d3e8"/>
    <ellipse cx="520" cy="90" rx="90" ry="26" fill="#c3d3e8"/>
  </g>
  <g fill="#6d80a4">
    <rect x="150" y="252" width="52" height="56"/>
    <rect x="208" y="236" width="38" height="72"/>
    <rect x="420" y="244" width="46" height="64"/>
    <rect x="472" y="226" width="34" height="82"/>
  </g>
  <g>
    <path d="M470 60 C 430 130 452 210 470 250 C 488 210 510 130 470 60 z" fill="url(#twr)" stroke="#7e90ad" stroke-width="2"/>
    <g stroke="#8fa3c2" stroke-width="1.6" fill="none" opacity="0.9">
      <path d="M462 90 C 470 100 474 110 478 122"/>
      <path d="M480 88 C 472 100 468 112 464 124"/>
      <path d="M458 160 C 468 170 474 182 478 194"/>
      <path d="M484 158 C 474 170 468 184 462 196"/>
      <path d="M452 230 C 464 240 478 240 490 230"/>
    </g>
    <circle cx="470" cy="70" r="9" fill="#e3ae3d"/>
    <rect x="468" y="34" width="4" height="30" fill="#7e90ad"/>
  </g>
  <rect y="308" width="640" height="92" fill="url(#riv)"/>
  <path d="M0 330 h640" stroke="#dfe8f4" stroke-width="2" opacity="0.4"/>
  <path d="M60 366 q80-10 160 0 h-160 z" fill="#dfe8f4" opacity="0.25"/>
  <g transform="translate(212,368)">
    <rect width="216" height="24" rx="12" fill="#0f141d" opacity="0.72"/>
    <text x="108" y="16" text-anchor="middle" font-family="sans-serif" font-size="12" fill="#dfe7f2">示例照片 · 请替换为实拍</text>
  </g>
</svg>
